<svg width="175" height="115" viewBox="0 0 131 89" fill="none" xmlns="http://www.w3.org/2000/svg">
<path d="M9.6975 34.28V43.91H21.8925V48.7475H9.6975V62H3.6225V29.465H24.1425V34.28H9.6975ZM51.7208 31.6925C51.7208 32.3825 51.5258 33.0125 51.1358 33.5825L34.4408 57.1625H51.3383V62H26.5883V59.615C26.5883 59.315 26.6408 59.03 26.7458 58.76C26.8508 58.475 26.9858 58.2125 27.1508 57.9725L43.8908 34.28H27.6458V29.465H51.7208V31.6925ZM62.8319 62H56.7569V29.465H62.8319V62ZM97.7438 29.465V62H94.6388C94.1587 62 93.7537 61.925 93.4238 61.775C93.1087 61.61 92.8012 61.34 92.5013 60.965L75.5137 39.275C75.6037 40.265 75.6487 41.18 75.6487 42.02V62H70.3162V29.465H73.4887C73.7437 29.465 73.9612 29.48 74.1412 29.51C74.3362 29.525 74.5012 29.57 74.6362 29.645C74.7862 29.705 74.9287 29.8025 75.0637 29.9375C75.1987 30.0575 75.3487 30.2225 75.5137 30.4325L92.5688 52.2125C92.5238 51.6875 92.4863 51.17 92.4563 50.66C92.4262 50.15 92.4112 49.6775 92.4112 49.2425V29.465H97.7438Z" fill="#00235B"/>
<path d="M125.03 30.95H116.3V40.22H111.778V30.95H103.093V26.8325H111.778V17.6075H116.3V26.8325H125.03V30.95Z" fill="#FFB800"/>
</svg>
