<svg width="73" height="73" viewBox="0 0 73 73" fill="none" xmlns="http://www.w3.org/2000/svg">
<circle cx="36.5" cy="36.5" r="36.5" fill="#E5E5E5"/>
<path d="M51.7531 52.2632H22.5972V33.469H20.7031V53.2023C20.7031 53.7208 21.1271 54.1411 21.6502 54.1411H52.7002C53.2232 54.1411 53.6472 53.7208 53.6472 53.2023V33.469H51.7531V52.2632Z" fill="#00235B"/>
<path d="M37.4611 19.5773C37.1748 19.4196 36.8269 19.4196 36.5408 19.5773L15.3535 31.2541L16.2738 32.8952L37.0008 21.4721L57.7279 32.8952L58.6482 31.2541L37.4611 19.5773Z" fill="#00235B"/>
<path d="M43.5033 30.7966H30.8338C30.3107 30.7966 29.8867 31.217 29.8867 31.7355V42.7092C29.8867 43.008 30.0304 43.2894 30.2734 43.4662L36.6081 48.0745C36.7748 48.1957 36.9715 48.2563 37.1685 48.2563C37.3652 48.2563 37.5622 48.1957 37.7289 48.0745L44.0636 43.4662C44.3066 43.2894 44.4503 43.0083 44.4503 42.7092V31.7355C44.4503 31.217 44.0263 30.7966 43.5033 30.7966ZM42.5562 42.2336L37.1685 46.1528L31.7808 42.2336V32.6743H42.5562V42.2336Z" fill="#00235B"/>
<path d="M36.2674 41.074C36.4871 41.074 36.706 40.9984 36.8821 40.8495L41.4191 37.0116L40.1895 35.5833L36.2124 38.9475L34.012 37.4083L32.9199 38.9424L35.7216 40.9021C35.8858 41.0172 36.0769 41.074 36.2674 41.074Z" fill="#00235B"/>
</svg>
