<svg width="73" height="76" viewBox="0 0 73 76" fill="none" xmlns="http://www.w3.org/2000/svg">
<circle cx="36.5" cy="36.5" r="36.5" fill="#E5E5E5"/>
<path d="M17.756 53.4757C17.4996 53.4757 17.2584 53.3492 17.1124 53.1395C16.967 52.9299 16.9342 52.6597 17.0252 52.4211L24.4159 33.0287C24.5317 32.7258 24.8209 32.5264 25.1467 32.5264H50.1665C50.4924 32.5264 50.7821 32.7253 50.8973 33.0287L58.2891 52.4211C58.3801 52.6597 58.3473 52.9294 58.2019 53.1395C58.0565 53.3492 57.8147 53.4757 57.5583 53.4757H38.445V57.7529H44.2907C44.7226 57.7529 45.0726 58.1014 45.0726 58.5314C45.0726 58.9614 44.7226 59.3099 44.2907 59.3099H31.0236C30.5917 59.3099 30.2417 58.9614 30.2417 58.5314C30.2417 58.1014 30.5917 57.7529 31.0236 57.7529H36.8811V53.4757H17.756ZM43.4038 51.9193L42.6638 46.0948H32.65L31.91 51.9193H43.4038ZM51.745 39.6392H43.4194L44.0419 44.5389H53.6126L51.745 39.6392ZM34.1761 34.0828L33.6678 38.0823H41.646L41.1376 34.0828H34.1761ZM21.7018 44.5384H31.2719L31.8944 39.6387H23.5688L21.7018 44.5384ZM32.8476 44.5384H42.4662L41.8437 39.6387H33.4701L32.8476 44.5384ZM30.3343 51.9193L31.0742 46.0948H21.1083L18.8885 51.9193H30.3343ZM24.1623 38.0828H32.092L32.6004 34.0833H25.6868L24.1623 38.0828ZM49.6275 34.0828H42.7139L43.2223 38.0823H51.152L49.6275 34.0828ZM54.2055 46.0948H44.2395L44.9795 51.9193H56.4253L54.2055 46.0948Z" fill="#00235B"/>
<path d="M30.5918 21.3707C30.5918 21.8007 30.2418 22.1492 29.8099 22.1492H27.575C27.1431 22.1492 26.793 21.8007 26.793 21.3707C26.793 20.9408 27.1431 20.5923 27.575 20.5923H29.8099C30.2418 20.5928 30.5918 20.9413 30.5918 21.3707Z" fill="#00235B"/>
<path d="M10.6531 20.5928H12.888C13.3199 20.5928 13.6699 20.9413 13.6699 21.3712C13.6699 21.8012 13.3199 22.1497 12.888 22.1497H10.6531C10.2212 22.1497 9.87117 21.8012 9.87117 21.3712C9.87117 20.9413 10.2212 20.5928 10.6531 20.5928Z" fill="#00235B"/>
<path d="M19.4478 14.0482V11.8361C19.4478 11.4061 19.7979 11.0576 20.2298 11.0576C20.6617 11.0576 21.0117 11.4061 21.0117 11.8361V14.0482C21.0117 14.4781 20.6617 14.8266 20.2298 14.8266C19.7979 14.8261 19.4478 14.4776 19.4478 14.0482Z" fill="#00235B"/>
<path d="M19.4478 30.9059V28.6686C19.4478 28.2386 19.7979 27.8901 20.2298 27.8901C20.6617 27.8901 21.0117 28.2386 21.0117 28.6686V30.9059C21.0117 31.3359 20.6617 31.6843 20.2298 31.6843C19.7979 31.6843 19.4478 31.3359 19.4478 30.9059Z" fill="#00235B"/>
<path d="M24.876 16.7488C24.5696 16.4459 24.5674 15.9532 24.8717 15.6482L26.4425 14.0719C26.7468 13.7669 27.2417 13.7647 27.5481 14.0676C27.8545 14.3706 27.8567 14.8633 27.5524 15.1683L25.9816 16.7445C25.6773 17.0496 25.1824 17.0512 24.876 16.7488Z" fill="#00235B"/>
<path d="M14.0139 28.6593C13.7086 28.9633 13.2137 28.9633 12.9083 28.6593C12.603 28.3553 12.603 27.8626 12.9083 27.5586L14.4916 25.9824C14.7969 25.6784 15.2918 25.6784 15.5972 25.9824C15.9025 26.2864 15.9025 26.7791 15.5972 27.0831L14.0139 28.6593Z" fill="#00235B"/>
<path d="M12.9109 14.0693C13.2163 13.7653 13.7112 13.7653 14.0165 14.0693L15.5874 15.6332C15.8927 15.9372 15.8927 16.4299 15.5874 16.7339C15.2821 17.0379 14.7872 17.0379 14.4818 16.7339L12.9109 15.17C12.6061 14.866 12.6061 14.3733 12.9109 14.0693Z" fill="#00235B"/>
<path d="M27.5522 28.6593C27.2469 28.9633 26.752 28.9633 26.4467 28.6593L24.8634 27.0831C24.5581 26.7791 24.5581 26.2864 24.8634 25.9824C25.1687 25.6784 25.6636 25.6784 25.969 25.9824L27.5522 27.5586C27.8576 27.8626 27.8576 28.3553 27.5522 28.6593Z" fill="#00235B"/>
<path d="M14.9743 21.3587C14.9748 18.4711 17.3249 16.1314 20.2254 16.1309C23.1259 16.1314 25.476 18.4711 25.4766 21.3587C25.476 24.2463 23.1259 26.586 20.2254 26.5865C17.3254 26.586 14.9748 24.2463 14.9743 21.3587ZM17.6179 23.9546C18.2878 24.62 19.2049 25.0296 20.2254 25.0301C21.2464 25.0296 22.163 24.6205 22.8329 23.9546C23.5018 23.2877 23.9127 22.3746 23.9132 21.3587C23.9127 20.3422 23.5018 19.4297 22.8329 18.7627C22.163 18.0974 21.2459 17.6878 20.2254 17.6872C19.2044 17.6878 18.2878 18.0969 17.6179 18.7627C16.949 19.4297 16.5381 20.3427 16.5376 21.3587C16.5381 22.3746 16.9496 23.2877 17.6179 23.9546Z" fill="#00235B"/>
</svg>
