<svg width="73" height="73" viewBox="0 0 73 73" fill="none" xmlns="http://www.w3.org/2000/svg">
<circle cx="36.5" cy="36.5" r="36.5" fill="#E5E5E5"/>
<path d="M40 37.5139L35.2 33.4583L36.8 24L32 34.8125L37.1714 38.8681L36.0629 49L40 37.5139Z" fill="#00235B"/>
<path d="M53.2311 42.7493H55.0211C53.5973 46.7117 51.0005 50.1126 47.5979 52.4711C44.1954 54.8295 40.1594 56.0261 36.0606 55.8916C31.9619 55.757 28.008 54.2982 24.758 51.7215C21.5081 49.1447 19.1266 45.5804 17.9503 41.5326C17.894 41.3373 17.8009 41.1552 17.6764 40.9969C17.5518 40.8386 17.3982 40.7071 17.2243 40.6099C17.0504 40.5128 16.8596 40.4519 16.6629 40.4307C16.4661 40.4095 16.2673 40.4285 16.0776 40.4865C15.888 40.5445 15.7113 40.6404 15.5576 40.7688C15.404 40.8972 15.2764 41.0554 15.1821 41.2346C15.0878 41.4138 15.0287 41.6103 15.0082 41.8131C14.9876 42.0158 15.006 42.2207 15.0623 42.4161C16.4457 47.1802 19.2753 51.3617 23.1355 54.3465C26.9957 57.3313 31.683 58.9621 36.5092 58.9993C41.3353 59.0366 46.0459 57.4784 49.949 54.5536C53.8522 51.6288 56.7424 47.4915 58.195 42.7493H60L56.9916 35L53.2311 42.7493Z" fill="#00235B"/>
<path d="M19.9192 30.5736H18.0895C19.5449 26.7763 22.1994 23.5171 25.6775 21.2569C29.1556 18.9967 33.2813 17.85 37.4711 17.9789C41.6608 18.1078 45.7026 19.5059 49.0247 21.9753C52.3469 24.4447 54.7813 27.8604 55.9836 31.7395C56.0781 32.0467 56.273 32.316 56.539 32.5074C56.805 32.6988 57.128 32.802 57.4597 32.8015C57.6078 32.8 57.7551 32.78 57.8979 32.7421C58.0919 32.6868 58.2727 32.595 58.4299 32.472C58.5871 32.3491 58.7177 32.1974 58.8141 32.0256C58.9105 31.8538 58.9709 31.6653 58.9918 31.471C59.0127 31.2766 58.9936 31.0802 58.9358 30.8929C57.5216 26.3273 54.6292 22.3201 50.6833 19.4596C46.7374 16.5992 41.9459 15.0364 37.0126 15.0006C32.0793 14.9649 27.2641 16.4582 23.2742 19.2611C19.2843 22.0641 16.33 26.029 14.8451 30.5736H13L16.0752 38L19.9192 30.5736Z" fill="#00235B"/>
</svg>
