<svg width="127" height="44" viewBox="0 0 127 44" fill="none" xmlns="http://www.w3.org/2000/svg">
<path d="M8.93 7.04V19.88H25.19V26.33H8.93V44H0.83V0.619997H28.19V7.04H8.93ZM64.8944 3.59C64.8944 4.51 64.6344 5.35 64.1144 6.11L41.8544 37.55H64.3844V44H31.3844V40.82C31.3844 40.42 31.4544 40.04 31.5944 39.68C31.7344 39.3 31.9144 38.95 32.1344 38.63L54.4544 7.04H32.7944V0.619997H64.8944V3.59ZM79.6425 44H71.5425V0.619997H79.6425V44ZM126.125 0.619997V44H121.985C121.345 44 120.805 43.9 120.365 43.7C119.945 43.48 119.535 43.12 119.135 42.62L96.485 13.7C96.605 15.02 96.665 16.24 96.665 17.36V44H89.555V0.619997H93.785C94.125 0.619997 94.415 0.639997 94.655 0.679996C94.915 0.699997 95.135 0.759998 95.315 0.859998C95.515 0.939999 95.705 1.07 95.885 1.25C96.065 1.41 96.265 1.63 96.485 1.91L119.225 30.95C119.165 30.25 119.115 29.56 119.075 28.88C119.035 28.2 119.015 27.57 119.015 26.99V0.619997H126.125Z" fill="white"/>
</svg>
